
Release info:

General

Format/Info : Audio Video Interleave
File size : 690 MiB
Duration : 2h 31mn
Overall bit rate : 636 Kbps
Video #0
ID : 0
Format : MPEG-4 Visual
Format profile : Advanced Simple@L5
Format settings, BVOP : 2
Format settings, QPel : No
Format settings, GMC : No warppoints
Format settings, Matrix : Default (H.263)
Codec ID : XVID
Codec ID/Hint : XviD
Duration : 2h 31mn
Bit rate : 565 Kbps
Width : 640 pixels
Height : 272 pixels
Display aspect ratio : 2.35:1
Frame rate : 29.970 fps
Color space : YUV
Chroma subsampling : 4:2:0
Bit depth : 8 bits
Scan type : Progressive
Compression mode : Lossy
Bits/(Pixel*Frame) : 0.108
Stream size : 613 MiB (89%)

Audio #1
ID : 1
Format : MPEG Audio
Format version : Version 2
Format profile : Layer 3
Mode : Joint stereo
Mode extension : MS Stereo
Codec ID : 55
Codec ID/Hint : MP3
Duration : 2h 31mn
Bit rate mode : Constant
Bit rate : 64.0 Kbps
Channel(s) : 2 channels
Sampling rate : 24.0 KHz
Compression mode : Lossy
Stream size : 69.4 MiB (10%)

Source:
credit to original movie ripper Deshi Digital Dhoom (Thanks)

Movie Info:

Teen Kanya Bengali movie Story Review: - The story of Teen Kanya Bengali film revolves around three girls playing by Rituparna Sengupta, Unnati Davara & Ananya Chatterjee. Actress Rituparna Sengupta [playing the character of Aparna] suspects that her husband has external affair with IPS Officer Damini [character played by Unnati Davara]. Aparna often questioned herself is Damini more beautiful than her and become obsessed with Damini. In the mean time when Aparna's husband got kidnapped, she went on to meet Damini and then how a mesmerizing relationship of Damini & Aparna begins is the story that you shouldn't miss to watch.

Rituparna Sengupta as Aparna
Ananya Chatterjee as Nancy
Unnati Davara as Damini Mishra
Sudip Mukherjee as Rajatabha (husband of Aparna)
Biplab Chatterjee
Rajatava Dutta
Suman Banerjee
Anindya
Shankar Chakrabarty

Screen Shot:
 
http://www.shotpix.com/images/83953883903476873115.png 
http://www.shotpix.com/images/43445007540398513572.png 
http://www.shotpix.com/images/86995546006367521023.png 
http://www.shotpix.com/images/12810270481646748562.png 
http://www.shotpix.com/images/51925646473103533320.png 
http://www.shotpix.com/images/10700214478637790280.png 
http://www.shotpix.com/images/48307242923824325549.png